<?xml version="1.0" encoding="UTF-8" standalone="no"?>
<!-- Created with Inkscape (http://www.inkscape.org/) -->
<svg xmlns:dc="http://purl.org/dc/elements/1.1/" xmlns:cc="http://creativecommons.org/ns#" xmlns:rdf="http://www.w3.org/1999/02/22-rdf-syntax-ns#" xmlns:svg="http://www.w3.org/2000/svg" xmlns="http://www.w3.org/2000/svg" xmlns:sodipodi="http://sodipodi.sourceforge.net/DTD/sodipodi-0.dtd" xmlns:inkscape="http://www.inkscape.org/namespaces/inkscape" width="874.42969mm" height="761.57111mm" viewBox="0 0 3098.3729 2698.4803" id="svg2" version="1.1" inkscape:version="0.91 r13725" sodipodi:docname="ricin_logo.svg"><style xmlns=""></style><style xmlns=""></style>
  <defs id="defs4"/>
  <sodipodi:namedview id="base" pagecolor="#ffffff" bordercolor="#666666" borderopacity="1.0" inkscape:pageopacity="0.0" inkscape:pageshadow="2" inkscape:zoom="0.21417177" inkscape:cx="1100.4021" inkscape:cy="1881.9125" inkscape:document-units="px" inkscape:current-layer="layer2" showgrid="false" inkscape:window-width="1918" inkscape:window-height="1059" inkscape:window-x="1920" inkscape:window-y="19" inkscape:window-maximized="0" fit-margin-top="0" fit-margin-left="0" fit-margin-right="0" fit-margin-bottom="0">
    <inkscape:grid type="xygrid" id="grid4167" originx="-172.83399" originy="-461.5197"/>
  </sodipodi:namedview>
  <metadata id="metadata7">
    <rdf:RDF>
      <cc:Work rdf:about="">
        <dc:format>image/svg+xml</dc:format>
        <dc:type rdf:resource="http://purl.org/dc/dcmitype/StillImage"/>
        <dc:title/>
      </cc:Work>
    </rdf:RDF>
  </metadata>
  <g inkscape:groupmode="layer" id="layer2" inkscape:label="logo" transform="translate(-172.83398,-383.30713)" sodipodi:insensitive="true">
    <path style="display:inline;fill:#000000;fill-opacity:1;fill-rule:evenodd;stroke:none;stroke-width:1px;stroke-linecap:butt;stroke-linejoin:miter;stroke-opacity:1" d="M 172.83398,3081.7874 C 304.40705,2836.3331 308.12334,2493.1183 313.40174,2407.5611 339.41018,1985.9925 144.64848,1297.6526 257.27467,753.46586 c 7.46868,-36.08711 17.30983,-71.1031 31.86357,-103.93419 14.55374,-32.83108 33.82007,-63.47726 60.13909,-90.82474 26.31901,-27.34749 59.69072,-51.39628 102.45522,-71.03258 42.7645,-19.63631 94.92179,-34.86014 158.81198,-44.55769 357.5757,-54.27453 729.46037,-59.80953 1109.45797,-59.80953 379.9975,0 751.8821,5.53501 1109.4578,59.80953 255.5608,38.79022 323.3952,166.00076 353.2699,310.3492 112.6261,544.18674 122.0367,1093.65384 3.3015,1634.28574 -36.7756,167.4489 -170.6305,290.7498 -425.9047,333.4603 -330.0602,55.2232 -680.127,62.0952 -1040.1245,62.0952 -462.0993,0 -573.8291,-53.9682 -813.46435,-53.6915 -419.91441,3.6292 -371.88411,316.0137 -733.70417,352.1718 z" id="path4198" inkscape:connector-curvature="0"/>
    <path style="fill:#ffffff;fill-opacity:1;fill-rule:evenodd;stroke:none;stroke-width:1px;stroke-linecap:butt;stroke-linejoin:miter;stroke-opacity:1" d="m 2670.1809,2349.2216 c 0,-150 220,-150 220,0 0,150 -220,150 -220,0 z" id="path4206" inkscape:connector-curvature="0"/>
    <path style="fill:#ffffff;fill-opacity:1;fill-rule:evenodd;stroke:none;stroke-width:1px;stroke-linecap:butt;stroke-linejoin:miter;stroke-opacity:1" d="m 2380.6936,2353.3071 c 0,-150 220,-150 220,0 0,150 -220,150 -220,0 z" id="path4204" inkscape:connector-curvature="0"/>
    <path style="fill:#ffffff;fill-opacity:1;fill-rule:evenodd;stroke:none;stroke-width:1px;stroke-linecap:butt;stroke-linejoin:miter;stroke-opacity:1" d="m 2095,2353.3071 c 0,-150 220,-150 220,0 0,150 -220,150 -220,0 z" id="path4202" inkscape:connector-curvature="0"/>
    <path style="fill:#ffffff;fill-opacity:1;fill-rule:evenodd;stroke:none;stroke-width:1px;stroke-linecap:butt;stroke-linejoin:miter;stroke-opacity:1" d="M 1588.6871,676.44931 1490.635,557.386 991.03593,585.4009 1469.6238,1334.7994 Z" id="path4200" inkscape:connector-curvature="0"/>
    <path style="fill:#ffffff;fill-opacity:1;fill-rule:evenodd;stroke:none;stroke-width:1px;stroke-linecap:butt;stroke-linejoin:miter;stroke-opacity:1" d="m 1851.3178,676.44931 98.0521,-119.06331 499.599,28.0149 -478.5878,749.3985 z" id="path4181" inkscape:connector-curvature="0"/>
  </g>
</svg>