<?xml version="1.0" encoding="UTF-8" standalone="no"?>
<!-- Created with Inkscape (http://www.inkscape.org/) -->
<svg xmlns:dc="http://purl.org/dc/elements/1.1/" xmlns:cc="http://creativecommons.org/ns#" xmlns:rdf="http://www.w3.org/1999/02/22-rdf-syntax-ns#" xmlns:svg="http://www.w3.org/2000/svg" xmlns="http://www.w3.org/2000/svg" xmlns:sodipodi="http://sodipodi.sourceforge.net/DTD/sodipodi-0.dtd" xmlns:inkscape="http://www.inkscape.org/namespaces/inkscape" width="188.5233mm" height="164.03006mm" viewBox="0 0 667.99594 581.20887" id="svg2" version="1.1" inkscape:version="0.91 r13725" sodipodi:docname="ricin_logo.svg" style=""><style xmlns=""></style><style xmlns=""></style>
  <defs id="defs4"/>
  <sodipodi:namedview id="base" pagecolor="#ffffff" bordercolor="#666666" borderopacity="1.0" inkscape:pageopacity="0.0" inkscape:pageshadow="2" inkscape:zoom="0.85668708" inkscape:cx="142.10088" inkscape:cy="291.83003" inkscape:document-units="px" inkscape:current-layer="layer2" showgrid="false" inkscape:window-width="1918" inkscape:window-height="1059" inkscape:window-x="1920" inkscape:window-y="19" inkscape:window-maximized="0" fit-margin-top="0" fit-margin-left="0" fit-margin-right="0" fit-margin-bottom="0" showborder="false">
    <inkscape:grid type="xygrid" id="grid4167" originx="-168.4139" originy="-458.56552"/>
  </sodipodi:namedview>
  <metadata id="metadata7">
    <rdf:RDF>
      <cc:Work rdf:about="">
        <dc:format>image/svg+xml</dc:format>
        <dc:type rdf:resource="http://purl.org/dc/dcmitype/StillImage"/>
        <dc:title/>
      </cc:Work>
    </rdf:RDF>
  </metadata>
  <g inkscape:groupmode="layer" id="layer2" inkscape:label="logo" transform="translate(-168.41391,-2503.5327)">
    <path style="display:inline;fill:#000000;fill-opacity:1;fill-rule:evenodd;stroke:#ffffff;stroke-width:5;stroke-linecap:butt;stroke-linejoin:miter;stroke-miterlimit:4;stroke-dasharray:none;stroke-opacity:1" d="m 172.83398,3081.7874 c 28.07277,-52.3708 28.86569,-125.6 29.9919,-143.8547 5.54923,-89.9469 -36.00563,-236.8129 -11.97542,-352.922 1.59354,-7.6997 3.69327,-15.1708 6.7985,-22.1757 3.10522,-7.0049 7.21594,-13.5437 12.83143,-19.3786 5.61549,-5.8349 12.73577,-10.966 21.86011,-15.1557 9.12435,-4.1896 20.25276,-7.4378 33.88454,-9.5069 76.29328,-11.5802 155.63955,-12.7611 236.71683,-12.7611 81.07725,0 160.42351,1.1809 236.71679,12.7611 54.52711,8.2764 69.00043,35.4183 75.37458,66.2169 24.03019,116.1091 26.03806,233.3448 0.70441,348.6954 -7.84653,35.7274 -36.40616,62.0352 -90.87213,71.148 -70.4225,11.7825 -145.11366,13.2488 -221.92365,13.2488 -98.59471,0 -122.43367,-11.5148 -173.56287,-11.4558 -89.59402,0.7743 -79.34615,67.4255 -156.54502,75.1403 z" id="path4198" inkscape:connector-curvature="0"/>
    <path style="fill:#ffffff;fill-opacity:1;fill-rule:evenodd;stroke:none;stroke-width:1px;stroke-linecap:butt;stroke-linejoin:miter;stroke-opacity:1" d="m 705.67439,2925.4853 c 0,-32.0044 46.93977,-32.0044 46.93977,0 0,32.0044 -46.93977,32.0044 -46.93977,0 z" id="path4206" inkscape:connector-curvature="0"/>
    <path style="fill:#ffffff;fill-opacity:1;fill-rule:evenodd;stroke:none;stroke-width:1px;stroke-linecap:butt;stroke-linejoin:miter;stroke-opacity:1" d="m 643.90863,2926.357 c 0,-32.0044 46.93977,-32.0044 46.93977,0 0,32.0043 -46.93977,32.0043 -46.93977,0 z" id="path4204" inkscape:connector-curvature="0"/>
    <path style="fill:#ffffff;fill-opacity:1;fill-rule:evenodd;stroke:none;stroke-width:1px;stroke-linecap:butt;stroke-linejoin:miter;stroke-opacity:1" d="m 582.9523,2926.357 c 0,-32.0044 46.93977,-32.0044 46.93977,0 0,32.0043 -46.93977,32.0043 -46.93977,0 z" id="path4202" inkscape:connector-curvature="0"/>
    <path style="fill:#ffffff;fill-opacity:1;fill-rule:evenodd;stroke:none;stroke-width:1px;stroke-linecap:butt;stroke-linejoin:miter;stroke-opacity:1" d="m 474.92407,2568.5782 -20.92065,-25.4036 -106.59575,5.9773 102.11275,159.8936 z" id="path4200" inkscape:connector-curvature="0"/>
    <path style="fill:#ffffff;fill-opacity:1;fill-rule:evenodd;stroke:none;stroke-width:1px;stroke-linecap:butt;stroke-linejoin:miter;stroke-opacity:1" d="m 530.95964,2568.5782 20.92065,-25.4036 106.59574,5.9773 -102.11274,159.8936 z" id="path4181" inkscape:connector-curvature="0"/>
  </g>
</svg>
